<?xml version="1.0" encoding="utf-8"?>
<svg xmlns="http://www.w3.org/2000/svg" xmlns:xlink="http://www.w3.org/1999/xlink">
	<symbol id='fb' viewBox="-110 1 511 511.99996" xmlns="http://www.w3.org/2000/svg">
		<path d="m180 512h-81.992188c-13.695312 0-24.835937-11.140625-24.835937-24.835938v-184.9375h-47.835937c-13.695313 0-24.835938-11.144531-24.835938-24.835937v-79.246094c0-13.695312 11.140625-24.835937 24.835938-24.835937h47.835937v-39.683594c0-39.347656 12.355469-72.824219 35.726563-96.804688 23.476562-24.089843 56.285156-36.820312 94.878906-36.820312l62.53125.101562c13.671875.023438 24.792968 11.164063 24.792968 24.835938v73.578125c0 13.695313-11.136718 24.835937-24.828124 24.835937l-42.101563.015626c-12.839844 0-16.109375 2.574218-16.808594 3.363281-1.152343 1.308593-2.523437 5.007812-2.523437 15.222656v31.351563h58.269531c4.386719 0 8.636719 1.082031 12.289063 3.121093 7.878906 4.402344 12.777343 12.726563 12.777343 21.722657l-.03125 79.246093c0 13.6875-11.140625 24.828125-24.835937 24.828125h-58.46875v184.941406c0 13.695313-11.144532 24.835938-24.839844 24.835938zm-76.8125-30.015625h71.632812v-193.195313c0-9.144531 7.441407-16.582031 16.582032-16.582031h66.726562l.027344-68.882812h-66.757812c-9.140626 0-16.578126-7.4375-16.578126-16.582031v-44.789063c0-11.726563 1.191407-25.0625 10.042969-35.085937 10.695313-12.117188 27.550781-13.515626 39.300781-13.515626l36.921876-.015624v-63.226563l-57.332032-.09375c-62.023437 0-100.566406 39.703125-100.566406 103.609375v53.117188c0 9.140624-7.4375 16.582031-16.578125 16.582031h-56.09375v68.882812h56.09375c9.140625 0 16.578125 7.4375 16.578125 16.582031zm163.0625-451.867187h.003906zm0 0"/>
	</symbol>
	<symbol id="telegram" viewBox="0 0 24 24" xmlns="http://www.w3.org/2000/svg">
		<path d="m.415 11.196 5.869 2.925c.227.112.495.104.712-.023l5.224-3.037-3.162 2.802c-.161.143-.253.347-.253.562v6.825c0 .72.919 1.023 1.35.451l2.537-3.373 6.274 3.573c.44.253 1.004-.001 1.106-.504l3.913-19.5c.117-.586-.466-1.064-1.008-.846l-22.5 8.775c-.604.236-.643 1.081-.062 1.37zm21.83-8.249-3.439 17.137-5.945-3.386c-.324-.185-.741-.103-.971.201l-1.585 2.107v-4.244l8.551-7.576c.677-.599-.101-1.664-.874-1.21l-11.39 6.622-3.992-1.989z"/>
	</symbol>
	<symbol id="whatsapp" viewBox="0 0 24 24" xmlns="http://www.w3.org/2000/svg">
		<path d="m13.33 18.076c4.05.964 5.475-2.5 4.761-3.793-.286-.516-2.856-1.507-2.981-1.555-1.104-.402-1.512.348-2.277 1.335-1.469-.735-2.454-1.314-3.466-2.96.057-.071.133-.155.19-.219.354-.396 1.017-1.134.565-2.037-.38-.757-.569-1.285-.708-1.672-.403-1.121-.71-1.425-2.098-1.425-1.445 0-2.566 1.899-2.566 3.534 0 3.569 4.798 7.889 8.58 8.792zm-6.014-10.826c.3 0 .452.01.528.022.162.343.326 1.059.93 2.173-.094.351-1.429 1.174-.81 2.238 1.265 2.148 2.531 2.893 4.345 3.795 1.208.546 1.594-.443 2.36-1.312.355.144 1.553.674 2.079.94-.047 1.036-1.047 1.992-3.07 1.51-3.472-.829-7.429-4.735-7.429-7.333.001-.988.694-2.033 1.067-2.033z"/>
		<path d="m.083 23.085c-.131.474.224.949.723.949.18 0-.114.046 5.848-1.5 2.427 1.236 4.272 1.197 5.45 1.308 10.555 0 15.725-12.873 8.461-20.363-9.957-9.624-25.464 2.336-18.975 14.127zm19.288-18.672c.173.316 5.135 4.791 2.372 11.478-1.701 4.12-5.626 6.659-10.024 6.421-3.578-.199-4.504-1.477-5.163-1.302l-4.683 1.22 1.245-4.524c.054-.194.027-.401-.073-.575-5.983-10.324 7.546-20.939 16.326-12.718z"/>
	</symbol>
	<symbol id='viber' viewBox="-22 0 512 512" xmlns="http://www.w3.org/2000/svg">
		<path d="m468.484375 180.707031c.003906-48.085937-18.84375-93.414062-53.066406-127.636719-34.222657-34.222656-79.550781-53.070312-127.640625-53.070312h-107.070313c-.003906 0-.003906 0-.003906 0-48.082031 0-93.414063 18.847656-127.632813 53.066406-34.222656 34.226563-53.070312 79.554688-53.070312 127.640625v84.164063c0 37.242187 11.359375 73.0625 32.851562 103.597656 18.960938 26.9375 44.460938 47.980469 74.191407 61.320312v48.34375c0 24.996094 13.996093 33.867188 25.980469 33.867188 8.5625 0 17.125-4.226562 25.460937-12.558594l53.859375-53.859375 75.4375-.003906c48.085938 0 93.414062-18.847656 127.636719-53.066406 34.222656-34.222657 53.070312-79.554688 53.070312-127.640625zm-180.703125 234.871094-81.648438.003906c-3.980468 0-7.792968 1.578125-10.605468 4.390625l-58.253906 58.253906c-.074219.078126-.152344.152344-.230469.226563 0-.105469 0-.214844 0-.320313v-58.355468c0-6.222656-3.839844-11.796875-9.652344-14.015625-58.25-22.226563-97.386719-78.847657-97.386719-140.890625v-84.164063c0-40.074219 15.726563-77.871093 44.28125-106.429687 28.554688-28.550782 66.347656-44.277344 106.421875-44.277344h107.070313c40.074218 0 77.871094 15.726562 106.425781 44.28125 28.558594 28.558594 44.285156 66.355469 44.28125 106.425781l.003906 84.164063c-.003906 83.101562-67.609375 150.707031-150.707031 150.707031zm0 0"/>
		<path d="m274.132812 245.335938c-5.855468-5.859376-15.351562-5.859376-21.210937 0l-12.117187 12.113281-46.953126-46.949219 12.117188-12.113281c2.8125-2.8125 4.394531-6.628907 4.394531-10.609375 0-3.976563-1.582031-7.792969-4.394531-10.605469l-56.804688-56.804687c-2.8125-2.8125-6.625-4.394532-10.605468-4.394532-3.976563 0-7.792969 1.582032-10.605469 4.394532l-39.765625 39.765624c-21.503906 21.503907-21.503906 56.5.003906 78.015626l124.964844 124.972656c10.390625 10.386718 24.246094 16.105468 39.007812 16.105468 14.765626 0 28.621094-5.71875 39.011719-16.105468l39.765625-39.761719c2.8125-2.816406 4.394532-6.628906 4.394532-10.609375 0-3.976562-1.582032-7.792969-4.394532-10.605469zm-4.171874 96.566406c-4.722657 4.722656-11.042969 7.324218-17.796876 7.324218-6.753906 0-13.074218-2.601562-17.796874-7.324218l-124.960938-124.96875c-9.8125-9.8125-9.816406-25.78125-.003906-35.589844l29.15625-29.160156 35.589844 35.59375-12.117188 12.113281c-2.8125 2.8125-4.394531 6.628906-4.394531 10.605469 0 3.980468 1.582031 7.792968 4.394531 10.609375l68.164062 68.164062c5.859376 5.855469 15.355469 5.859375 21.214844 0l12.117188-12.113281 35.589844 35.589844zm0 0"/>
		<path d="m237.882812 66.355469c-8.285156 0-15 6.714843-15 15 0 8.28125 6.714844 15 15 15 34.328126 0 66.605469 13.367187 90.878907 37.644531 24.277343 24.273438 37.644531 56.546875 37.644531 90.878906 0 8.28125 6.714844 15 15 15 8.28125 0 15-6.714844 15-15 0-42.34375-16.488281-82.152344-46.429688-112.09375-29.941406-29.941406-69.75-46.429687-112.09375-46.429687zm0 0"/>
		<path d="m302.140625 224.875c0 8.28125 6.71875 15 15 15 8.285156 0 15-6.71875 15-15 0-51.972656-42.285156-94.253906-94.257813-94.253906-8.285156 0-15 6.714844-15 15s6.714844 15 15 15c35.433594 0 64.257813 28.824218 64.257813 64.253906zm0 0"/>
	</symbol>
	<symbol id="instagram" xmlns="http://www.w3.org/2000/svg" viewBox="0 0 512 512">
		<path d="M352,0H160C71.648,0,0,71.648,0,160v192c0,88.352,71.648,160,160,160h192c88.352,0,160-71.648,160-160V160 C512,71.648,440.352,0,352,0z M464,352c0,61.76-50.24,112-112,112H160c-61.76,0-112-50.24-112-112V160C48,98.24,98.24,48,160,48 h192c61.76,0,112,50.24,112,112V352z"/>
		<path d="M256,128c-70.688,0-128,57.312-128,128s57.312,128,128,128s128-57.312,128-128S326.688,128,256,128z M256,336 c-44.096,0-80-35.904-80-80c0-44.128,35.904-80,80-80s80,35.872,80,80C336,300.096,300.096,336,256,336z"/>
		<circle cx="393.6" cy="118.4" r="17.056"/>
	</symbol>
	<symbol id="vk" viewBox="0 0 24 24" xmlns="http://www.w3.org/2000/svg">
		<path d="m12.145 19.5c3.472 0 2.234-2.198 2.502-2.83-.004-.472-.008-.926.008-1.202.22.062.739.325 1.811 1.367 1.655 1.67 2.078 2.665 3.415 2.665h2.461c.78 0 1.186-.323 1.389-.594.196-.262.388-.722.178-1.438-.549-1.724-3.751-4.701-3.95-5.015.03-.058.078-.135.103-.175h-.002c.632-.835 3.044-4.449 3.399-5.895.001-.002.002-.005.002-.008.192-.66.016-1.088-.166-1.33-.274-.362-.71-.545-1.299-.545h-2.461c-.824 0-1.449.415-1.765 1.172-.529 1.345-2.015 4.111-3.129 5.09-.034-1.387-.011-2.446.007-3.233.036-1.535.152-3.029-1.441-3.029h-3.868c-.998 0-1.953 1.09-.919 2.384.904 1.134.325 1.766.52 4.912-.76-.815-2.112-3.016-3.068-5.829-.268-.761-.674-1.466-1.817-1.466h-2.461c-.998 0-1.594.544-1.594 1.455 0 2.046 4.529 13.544 12.145 13.544zm-8.09-13.499c.217 0 .239 0 .4.457.979 2.883 3.175 7.149 4.779 7.149 1.205 0 1.205-1.235 1.205-1.7l-.001-3.702c-.066-1.225-.512-1.835-.805-2.205l3.508.004c.002.017-.02 4.095.01 5.083 0 1.403 1.114 2.207 2.853.447 1.835-2.071 3.104-5.167 3.155-5.293.075-.18.14-.241.376-.241h2.461.01c-.001.003-.001.006-.002.009-.225 1.05-2.446 4.396-3.189 5.435-.012.016-.023.033-.034.05-.327.534-.593 1.124.045 1.954h.001c.058.07.209.234.429.462.684.706 3.03 3.12 3.238 4.08-.138.022-.288.006-2.613.011-.495 0-.882-.74-2.359-2.23-1.328-1.292-2.19-1.82-2.975-1.82-1.524 0-1.413 1.237-1.399 2.733.005 1.622-.005 1.109.006 1.211-.089.035-.344.105-1.009.105-6.345 0-10.477-10.071-10.636-11.996.055-.005.812-.002 2.546-.003z"/>
	</symbol>
	<symbol id='left-arrow' xmlns="http://www.w3.org/2000/svg" viewBox="0 0 483.284 483.284" >
		<polygon points="483.284,221.643 88.284,221.643 88.284,153.358 0,241.644 88.284,241.644 88.284,261.643 
			483.284,261.643"/>
		<polygon points="0,241.644 88.284,329.926 88.284,241.644"/>
	</symbol>
	<symbol id='right-arrow' viewBox="0 0 483.284 483.284" xmlns="http://www.w3.org/2000/svg">
		<polygon points="483.284,241.644 395,153.358 395,221.643 0,221.643 0,261.643 395,261.643 395,241.644 	"/>
		<polygon points="483.284,241.644 395,241.644 395,329.926 	"/>
	</symbol>
	<symbol id='phone' viewBox="0 0 384 384" xmlns="http://www.w3.org/2000/svg">
		<path d="M353.188,252.052c-23.51,0-46.594-3.677-68.469-10.906c-10.906-3.719-23.323-0.833-30.438,6.417l-43.177,32.594
			c-50.073-26.729-80.917-57.563-107.281-107.26l31.635-42.052c8.219-8.208,11.167-20.198,7.635-31.448
			c-7.26-21.99-10.948-45.063-10.948-68.583C132.146,13.823,118.323,0,101.333,0H30.812C13.823,0,0,13.823,0,30.812
			C0,225.563,158.438,384,353.188,384c16.99,0,30.813-13.823,30.813-30.813v-70.323C384,265.875,370.177,252.052,353.188,252.052z
				M362.667,353.188c0,5.229-4.25,9.479-9.479,9.479c-182.99,0-331.854-148.865-331.854-331.854c0-5.229,4.25-9.479,9.479-9.479
			h70.521c5.229,0,9.479,4.25,9.479,9.479c0,25.802,4.052,51.125,11.979,75.115c1.104,3.542,0.208,7.208-3.375,10.938L82.75,165.427
			c-2.458,3.26-2.844,7.625-1,11.26c29.927,58.823,66.292,95.188,125.531,125.542c3.604,1.885,8.021,1.49,11.292-0.979
			l49.677-37.635c2.51-2.51,6.271-3.406,9.667-2.25c24.156,7.979,49.479,12.021,75.271,12.021c5.229,0,9.479,4.25,9.479,9.479
			V353.188z"/>
	</symbol>
	<symbol id='mail' viewBox="0 0 512 512" xmlns="http://www.w3.org/2000/svg">
		<path d="M467,76H45C20.137,76,0,96.262,0,121v270c0,24.885,20.285,45,45,45h422c24.655,0,45-20.03,45-45V121
			C512,96.306,491.943,76,467,76z M460.698,106c-9.194,9.145-167.415,166.533-172.878,171.967c-8.5,8.5-19.8,13.18-31.82,13.18
			s-23.32-4.681-31.848-13.208C220.478,274.284,64.003,118.634,51.302,106H460.698z M30,384.894V127.125L159.638,256.08L30,384.894z
				M51.321,406l129.587-128.763l22.059,21.943c14.166,14.166,33,21.967,53.033,21.967c20.033,0,38.867-7.801,53.005-21.939
			l22.087-21.971L460.679,406H51.321z M482,384.894L352.362,256.08L482,127.125V384.894z"/>
	</symbol>
	<symbol id='location' viewBox="0 0 512 512" xmlns="http://www.w3.org/2000/svg">
		<path d="M256,0C156.748,0,76,80.748,76,180c0,33.534,9.289,66.26,26.869,94.652l142.885,230.257
			c2.737,4.411,7.559,7.091,12.745,7.091c0.04,0,0.079,0,0.119,0c5.231-0.041,10.063-2.804,12.75-7.292L410.611,272.22
			C427.221,244.428,436,212.539,436,180C436,80.748,355.252,0,256,0z M384.866,256.818L258.272,468.186l-129.905-209.34
			C113.734,235.214,105.8,207.95,105.8,180c0-82.71,67.49-150.2,150.2-150.2S406.1,97.29,406.1,180
			C406.1,207.121,398.689,233.688,384.866,256.818z"/>
		<path d="M256,90c-49.626,0-90,40.374-90,90c0,49.309,39.717,90,90,90c50.903,0,90-41.233,90-90C346,130.374,305.626,90,256,90z
				M256,240.2c-33.257,0-60.2-27.033-60.2-60.2c0-33.084,27.116-60.2,60.2-60.2s60.1,27.116,60.1,60.2
			C316.1,212.683,289.784,240.2,256,240.2z"/>
	</symbol>
</svg>